<?xml version="1.0" encoding="utf-8"?>
<!-- Generator: Adobe Illustrator 18.0.0, SVG Export Plug-In . SVG Version: 6.00 Build 0)  -->
<!DOCTYPE svg PUBLIC "-//W3C//DTD SVG 1.1//EN" "http://www.w3.org/Graphics/SVG/1.1/DTD/svg11.dtd">
<svg version="1.1" id="Слой_1" xmlns="http://www.w3.org/2000/svg" xmlns:xlink="http://www.w3.org/1999/xlink" x="0px" y="0px"
	 viewBox="0 0 141.7 42.1" enable-background="new 0 0 141.7 42.1" xml:space="preserve">
<polygon fill-rule="evenodd" clip-rule="evenodd" fill="#59554B" points="0,32.1 141.7,32.1 141.7,32.6 0,32.6 0,32.1 "/>
<g>
	<polygon fill="#59554B" points="84.3,20 78.4,20 78.4,0 74,0 74,29.3 78.4,29.3 78.4,23.7 84.3,23.7 84.3,29.3 88.7,29.3 88.7,0 
		84.3,0 	"/>
	<path fill="#59554B" d="M141.7,9.2V2.7c0-1.8-0.9-2.7-2.7-2.7h-8.8c-1.8,0-2.6,0.9-2.6,2.7v6.5c0,1,0.3,1.7,1,2.3l8.8,8.3v5.7H132
		v-6h-4.4v7c0,1.8,0.9,2.7,2.6,2.7h8.8h0v-2.7h2.6v-7c0-1-0.3-1.8-1-2.4L132,9V3.7h5.4v5.5H141.7z"/>
	<path fill="#59554B" d="M96.8,0l-5.7,29.2v0.1h4.3l0.9-5.6h5.5l0.9,5.6h4.3L101.4,0H96.8z M97,20l2.2-13.2l2.1,13.2H97z"/>
	<path fill="#59554B" d="M119.8,25.5h-5.9V0h-4.4v26.6c0,1.8,0.9,2.7,2.7,2.7h9.3c1.8,0,2.7-0.9,2.7-2.7V0h-4.4V25.5z"/>
</g>
<g>
	<polygon fill="#803C1C" points="1.8,4.7 0,4.7 0,9.7 1.8,9.7 1.8,7.2 	"/>
	<rect y="27" fill="#803C1C" width="1.8" height="2.3"/>
	<polygon fill="#803C1C" points="4.3,2.2 4.3,0 0,0 0,2.2 1.8,2.2 1.8,4.7 4.3,4.7 	"/>
	<path fill="#803C1C" d="M69.1,1.5c-1-1-2.4-1.5-4.1-1.5H56v29.3H65c1.7,0,3.1-0.5,4.1-1.5c1-1,1.5-2.3,1.5-4V5.6
		C70.6,3.8,70.1,2.5,69.1,1.5z M66.2,23c0,1.7-0.9,2.5-2.7,2.5h-3.1V3.8h3.3c1.7,0,2.6,0.8,2.6,2.5V23z"/>
	<path fill="#803C1C" d="M48.3,15.9c0,0.5,0.1,1.2,0.3,2.1L41.5,0h-3.8v29.3h4.3V13c0-0.5-0.1-1.2-0.3-2.1l7,18.4h3.8V0h-4.3V15.9z"
		/>
	<polygon fill="#803C1C" points="26.9,16.2 33.5,16.2 33.5,12.4 26.9,12.4 26.9,3.9 34.6,3.9 34.6,0 22.5,0 22.5,29.3 34.7,29.3 
		34.7,25.4 26.9,25.4 	"/>
	<path fill="#803C1C" d="M17.9,15.7c0.8-0.4,1.3-1.2,1.3-2.4V2.7c0-1.8-0.9-2.7-2.6-2.7H6.8v2.2v2.5H4.3v2.5v2.5H1.8v2.5H0v5h1.8
		v2.5h2.5V22H1.8H0v2.5h1.8V27h2.5v2.3h5V3.8h5.5V13h-4.3c0,1.8,0,2.6,0,2.6l4.8,13.6h4.6L15,16C16.5,16,17.4,15.9,17.9,15.7z"/>
</g>
<g>
	<path fill="#59554B" d="M114.4,40.3c0-0.1,0-0.5,0-1.1v-0.8c0-0.3,0-0.5,0-0.6c0-0.2-0.1-0.3-0.2-0.4c-0.1-0.1-0.2-0.2-0.4-0.3
		c-0.2-0.1-0.4-0.1-0.7-0.1c-0.3,0-0.6,0-0.8,0.1c-0.2,0.1-0.4,0.2-0.5,0.4c-0.1,0.2-0.2,0.4-0.3,0.6l0.6,0.1
		c0.1-0.3,0.2-0.4,0.3-0.5c0.1-0.1,0.3-0.1,0.6-0.1c0.3,0,0.5,0.1,0.7,0.2c0.1,0.1,0.2,0.3,0.2,0.5c0,0,0,0.1,0,0.2
		c-0.2,0.1-0.6,0.1-1,0.2c-0.2,0-0.4,0.1-0.5,0.1c-0.2,0-0.3,0.1-0.4,0.2c-0.1,0.1-0.2,0.2-0.3,0.3c-0.1,0.1-0.1,0.3-0.1,0.5
		c0,0.3,0.1,0.5,0.3,0.7c0.2,0.2,0.5,0.3,0.9,0.3c0.2,0,0.4,0,0.6-0.1c0.2-0.1,0.4-0.2,0.6-0.4c0,0.2,0.1,0.3,0.1,0.4h0.6
		C114.5,40.6,114.5,40.4,114.4,40.3z M113.8,39.1c0,0.3,0,0.5-0.1,0.6c-0.1,0.2-0.2,0.3-0.4,0.4c-0.2,0.1-0.4,0.2-0.6,0.2
		c-0.2,0-0.4-0.1-0.5-0.2c-0.1-0.1-0.2-0.2-0.2-0.4c0-0.1,0-0.2,0.1-0.3c0.1-0.1,0.1-0.2,0.2-0.2c0.1,0,0.3-0.1,0.5-0.1
		c0.4-0.1,0.7-0.1,1-0.2V39.1z"/>
	<polygon fill="#59554B" points="54,39.8 54,37.1 53.4,37.1 53.4,40.7 54.1,40.7 55.7,38 55.7,40.7 56.3,40.7 56.3,37.1 55.7,37.1 	
		"/>
	<path fill="#59554B" d="M41.6,39.2c-0.1,0.3-0.2,0.5-0.2,0.8c-0.1-0.3-0.2-0.6-0.3-0.8l-0.7-2.1h-0.6l1.3,3.6c0,0.1,0,0.1-0.1,0.1
		c-0.1,0.2-0.1,0.4-0.2,0.4c-0.1,0.1-0.1,0.1-0.2,0.2c-0.1,0-0.2,0.1-0.3,0.1c-0.1,0-0.2,0-0.3-0.1l0.1,0.6c0.1,0,0.3,0.1,0.4,0.1
		c0.2,0,0.3,0,0.5-0.1c0.1-0.1,0.3-0.2,0.4-0.4c0.1-0.1,0.2-0.4,0.3-0.8l1.3-3.6h-0.6L41.6,39.2z"/>
	<path fill="#59554B" d="M49.3,37.1h-2.4c0,1.5-0.2,2.5-0.6,3.1h-0.3v1.5h0.5v-1h2.7v1h0.5v-1.5h-0.4V37.1z M48.7,40.2h-1.9
		c0.3-0.6,0.5-1.4,0.5-2.6h1.3V40.2z"/>
	<path fill="#59554B" d="M99.3,36.7c0.3,0,0.5-0.1,0.7-0.2c0.2-0.1,0.3-0.4,0.3-0.6h-0.4c0,0.2-0.1,0.3-0.2,0.3
		c-0.1,0.1-0.2,0.1-0.4,0.1c-0.2,0-0.3,0-0.4-0.1c-0.1-0.1-0.2-0.2-0.2-0.3h-0.4c0,0.3,0.1,0.5,0.3,0.6C98.8,36.6,99,36.7,99.3,36.7
		z"/>
	<polygon fill="#59554B" points="33.5,37.6 34.6,37.6 34.6,40.7 35.2,40.7 35.2,37.6 36.3,37.6 36.3,37.1 33.5,37.1 	"/>
	<path fill="#59554B" d="M29.3,40.1c-0.2,0.1-0.3,0.2-0.6,0.2c-0.3,0-0.5-0.1-0.7-0.3c-0.2-0.2-0.3-0.6-0.3-1c0-0.5,0.1-0.8,0.3-1
		c0.2-0.2,0.4-0.3,0.7-0.3c0.2,0,0.4,0.1,0.5,0.2c0.1,0.1,0.2,0.3,0.3,0.5l0.6-0.1c-0.1-0.4-0.2-0.6-0.5-0.8
		c-0.2-0.2-0.5-0.3-0.9-0.3c-0.3,0-0.6,0.1-0.8,0.2c-0.3,0.1-0.4,0.4-0.6,0.6c-0.1,0.3-0.2,0.6-0.2,1c0,0.6,0.1,1.1,0.4,1.4
		c0.3,0.3,0.7,0.5,1.1,0.5c0.4,0,0.7-0.1,1-0.3c0.3-0.2,0.4-0.6,0.5-1l-0.6-0.1C29.5,39.7,29.4,39.9,29.3,40.1z"/>
	<polygon fill="#59554B" points="78.5,39.8 78.5,37.1 77.9,37.1 77.9,40.7 78.5,40.7 80.1,38 80.1,40.7 80.7,40.7 80.7,37.1 
		80.1,37.1 	"/>
	<path fill="#59554B" d="M60.5,37.4c-0.2,0.2-0.3,0.4-0.3,0.8c0,0.3,0.1,0.5,0.2,0.7c0.2,0.2,0.4,0.3,0.7,0.4
		c-0.2,0-0.4,0.2-0.6,0.5l-0.6,1h0.7l0.5-0.8c0.2-0.3,0.3-0.5,0.4-0.5c0.1-0.1,0.3-0.1,0.5-0.1h0.3v1.4h0.6v-3.6h-1.6
		C61,37.1,60.7,37.2,60.5,37.4z M62.5,37.6v1.2h-0.7c-0.4,0-0.6-0.1-0.8-0.1c-0.1-0.1-0.2-0.3-0.2-0.5c0-0.1,0.1-0.3,0.2-0.4
		c0.1-0.1,0.3-0.2,0.7-0.2H62.5z"/>
	<polygon fill="#59554B" points="98.4,39.8 98.4,37.1 97.8,37.1 97.8,40.7 98.5,40.7 100.1,38 100.1,40.7 100.7,40.7 100.7,37.1 
		100.1,37.1 	"/>
	<path fill="#59554B" d="M93.8,39.2v-0.8c0-0.3,0-0.5,0-0.6c0-0.2-0.1-0.3-0.2-0.4c-0.1-0.1-0.2-0.2-0.4-0.3
		c-0.2-0.1-0.4-0.1-0.7-0.1c-0.3,0-0.6,0-0.8,0.1c-0.2,0.1-0.4,0.2-0.5,0.4c-0.1,0.2-0.2,0.4-0.3,0.6l0.6,0.1
		c0.1-0.3,0.2-0.4,0.3-0.5c0.1-0.1,0.3-0.1,0.6-0.1c0.3,0,0.5,0.1,0.7,0.2c0.1,0.1,0.2,0.3,0.2,0.5c0,0,0,0.1,0,0.2
		c-0.2,0.1-0.6,0.1-1,0.2c-0.2,0-0.4,0.1-0.5,0.1c-0.2,0-0.3,0.1-0.4,0.2c-0.1,0.1-0.2,0.2-0.3,0.3c-0.1,0.1-0.1,0.3-0.1,0.5
		c0,0.3,0.1,0.5,0.3,0.7c0.2,0.2,0.5,0.3,0.9,0.3c0.2,0,0.4,0,0.6-0.1c0.2-0.1,0.4-0.2,0.6-0.4c0,0.2,0.1,0.3,0.1,0.4H94
		c-0.1-0.1-0.1-0.3-0.1-0.4C93.8,40.1,93.8,39.8,93.8,39.2z M93.2,39.1c0,0.3,0,0.5-0.1,0.6c-0.1,0.2-0.2,0.3-0.4,0.4
		c-0.2,0.1-0.4,0.2-0.6,0.2c-0.2,0-0.4-0.1-0.5-0.2c-0.1-0.1-0.2-0.2-0.2-0.4c0-0.1,0-0.2,0.1-0.3c0.1-0.1,0.1-0.2,0.2-0.2
		c0.1,0,0.3-0.1,0.5-0.1c0.4-0.1,0.7-0.1,1-0.2V39.1z"/>
	<path fill="#59554B" d="M86.6,38.8c0.3-0.2,0.4-0.4,0.4-0.7c0-0.3-0.1-0.5-0.3-0.7c-0.2-0.2-0.5-0.3-0.9-0.3c-0.7,0-1.1,0.3-1.3,1
		l0.6,0.1c0.1-0.4,0.4-0.6,0.7-0.6c0.2,0,0.3,0,0.4,0.1c0.1,0.1,0.2,0.2,0.2,0.4c0,0.1,0,0.2-0.1,0.3c-0.1,0.1-0.2,0.1-0.3,0.2
		c-0.1,0-0.3,0-0.5,0v0.5c0.1,0,0.1,0,0.1,0c0.2,0,0.4,0,0.5,0c0.1,0,0.2,0.1,0.3,0.2c0.1,0.1,0.1,0.2,0.1,0.4
		c0,0.2-0.1,0.3-0.2,0.4c-0.1,0.1-0.3,0.2-0.5,0.2c-0.2,0-0.4-0.1-0.5-0.2c-0.2-0.1-0.3-0.3-0.3-0.5l-0.6,0.1
		c0.1,0.7,0.6,1.1,1.4,1.1c0.4,0,0.7-0.1,0.9-0.3c0.2-0.2,0.3-0.5,0.3-0.8c0-0.2,0-0.4-0.1-0.5C86.9,39,86.8,38.9,86.6,38.8z"/>
	<polygon fill="#59554B" points="107,38.6 105.3,38.6 105.3,37.1 104.7,37.1 104.7,40.7 105.3,40.7 105.3,39.1 107,39.1 107,40.7 
		107.5,40.7 107.5,37.1 107,37.1 	"/>
	<path fill="#59554B" d="M73.7,37.1h-2.4c0,1.5-0.2,2.5-0.6,3.1h-0.3v1.5h0.5v-1h2.7v1h0.5v-1.5h-0.4V37.1z M73.1,40.2h-1.9
		c0.3-0.6,0.5-1.4,0.5-2.6h1.3V40.2z"/>
</g>
</svg>
