<?xml version="1.0" encoding="utf-8"?>
<!-- Generator: Adobe Illustrator 18.0.0, SVG Export Plug-In . SVG Version: 6.00 Build 0)  -->
<!DOCTYPE svg PUBLIC "-//W3C//DTD SVG 1.1//EN" "http://www.w3.org/Graphics/SVG/1.1/DTD/svg11.dtd">
<svg version="1.1" id="Слой_1" xmlns="http://www.w3.org/2000/svg" xmlns:xlink="http://www.w3.org/1999/xlink" x="0px" y="0px"
	 viewBox="0 0 92.8 27.6" enable-background="new 0 0 92.8 27.6" xml:space="preserve">
<g>
	<polygon fill="none" points="2.8,17.7 4.4,17.7 4.4,16.1 4.4,14.5 2.8,14.5 2.8,16.1 	"/>
	<path fill="none" d="M30.7,26.3h1.2v-1.7H31C31,25.4,30.9,26,30.7,26.3z"/>
	<polygon fill="none" points="4.4,11.2 4.4,9.6 2.8,9.6 2.8,11.2 2.8,12.8 4.4,12.8 	"/>
	<path fill="none" d="M39.8,25c0,0.1,0,0.2,0.1,0.3c0.1,0.1,0.3,0.1,0.5,0.1h0.4v-0.8h-0.5c-0.2,0-0.4,0-0.4,0.1
		C39.9,24.8,39.8,24.9,39.8,25z"/>
	<polygon fill="none" points="2.8,4.7 2.8,3.1 1.2,3.1 1.2,4.7 1.2,6.4 2.8,6.4 	"/>
	<polygon fill="none" points="64.9,4.5 63.5,13.1 66.3,13.1 	"/>
	<rect x="1.2" y="8" fill="none" width="1.6" height="1.6"/>
	<path fill="none" d="M46.7,26.3h1.2v-1.7H47C47,25.4,46.9,26,46.7,26.3z"/>
	<path fill="none" d="M43.4,15.1v-11c0-1.1-0.6-1.6-1.7-1.6h-2.1v14.3h2.1C42.8,16.7,43.4,16.2,43.4,15.1z"/>
	<path fill="none" d="M73.6,25.7c-0.1,0-0.1,0.1-0.2,0.1c0,0.1-0.1,0.1-0.1,0.2c0,0.1,0,0.2,0.1,0.3c0.1,0.1,0.2,0.1,0.3,0.1
		c0.1,0,0.3,0,0.4-0.1c0.1-0.1,0.2-0.2,0.3-0.3c0-0.1,0.1-0.2,0.1-0.4v-0.1c-0.1,0.1-0.3,0.1-0.6,0.2C73.7,25.7,73.6,25.7,73.6,25.7
		z"/>
	<path fill="none" d="M60.1,25.7c-0.1,0-0.1,0.1-0.2,0.1c0,0.1-0.1,0.1-0.1,0.2c0,0.1,0,0.2,0.1,0.3c0.1,0.1,0.2,0.1,0.3,0.1
		c0.1,0,0.3,0,0.4-0.1c0.1-0.1,0.2-0.2,0.3-0.3c0-0.1,0.1-0.2,0.1-0.4v-0.1c-0.1,0.1-0.3,0.1-0.6,0.2C60.2,25.7,60.1,25.7,60.1,25.7
		z"/>
	<polygon fill="#763D23" points="2.8,16.1 2.8,14.5 1.2,14.5 0,14.5 0,16.1 1.2,16.1 1.2,17.7 2.8,17.7 	"/>
	<path fill="#763D23" d="M45.3,18.2c0.7-0.6,1-1.5,1-2.7V3.7c0-1.1-0.3-2-1-2.7c-0.7-0.6-1.6-1-2.7-1h-5.8v19.2h5.8
		C43.7,19.2,44.6,18.9,45.3,18.2z M39.6,16.7V2.5h2.1c1.1,0,1.7,0.5,1.7,1.6v11c0,1.1-0.6,1.6-1.8,1.6H39.6z"/>
	<polygon fill="#763D23" points="1.2,3.1 0,3.1 0,6.4 1.2,6.4 1.2,4.7 	"/>
	<polygon fill="#763D23" points="2.8,9.6 1.2,9.6 1.2,8 0,8 0,11.2 1.2,11.2 1.2,12.8 2.8,12.8 2.8,11.2 	"/>
	<rect x="0" y="17.7" fill="#763D23" width="1.2" height="1.5"/>
	<path fill="#763D23" d="M4.4,16.1v1.6H2.8v1.5h3.3V2.5h3.6v6.1H6.9c0,1.2,0,1.7,0,1.7l3.2,8.9h3l-3.2-8.7c0.9,0,1.6-0.1,1.9-0.2
		c0.5-0.2,0.8-0.8,0.8-1.6v-7C12.5,0.6,12,0,10.8,0H4.4v1.5v1.6H2.8v1.6v1.6H1.2V8h1.6v1.6h1.6v1.6v1.6H2.8v1.6h1.6V16.1z"/>
	<path fill="#763D23" d="M27.5,8.5c0-0.3-0.1-0.8-0.2-1.4l4.6,12.1h2.5V0h-2.8v10.4c0,0.3,0.1,0.8,0.2,1.4L27.2,0h-2.5v19.2h2.8V8.5
		z"/>
	<polygon fill="#763D23" points="22.7,16.7 17.6,16.7 17.6,10.7 21.9,10.7 21.9,8.2 17.6,8.2 17.6,2.6 22.6,2.6 22.6,0 14.8,0 
		14.8,19.2 22.7,19.2 	"/>
	<polygon fill="#763D23" points="2.8,1.5 2.8,0 0,0 0,1.5 1.2,1.5 1.2,3.1 2.8,3.1 	"/>
	<polygon fill="#999999" points="64.5,26.1 64.5,24.3 64.1,24.3 64.1,26.7 64.5,26.7 65.6,24.9 65.6,26.7 65.9,26.7 65.9,24.3 
		65.5,24.3 	"/>
	<path fill="#999999" d="M56.7,25.4c0.2-0.1,0.3-0.3,0.3-0.5c0-0.2-0.1-0.4-0.2-0.5c-0.1-0.1-0.3-0.2-0.6-0.2
		c-0.4,0-0.7,0.2-0.8,0.7l0.4,0.1c0.1-0.3,0.2-0.4,0.5-0.4c0.1,0,0.2,0,0.3,0.1c0.1,0.1,0.1,0.1,0.1,0.3c0,0.1,0,0.2-0.1,0.2
		c-0.1,0.1-0.1,0.1-0.2,0.1c-0.1,0-0.2,0-0.3,0v0.3c0,0,0.1,0,0.1,0c0.2,0,0.3,0,0.3,0c0.1,0,0.1,0.1,0.2,0.1
		c0.1,0.1,0.1,0.1,0.1,0.2c0,0.1,0,0.2-0.1,0.3c-0.1,0.1-0.2,0.1-0.3,0.1c-0.1,0-0.2,0-0.3-0.1c-0.1-0.1-0.2-0.2-0.2-0.3L55.3,26
		c0.1,0.5,0.4,0.7,0.9,0.7c0.3,0,0.5-0.1,0.6-0.2c0.1-0.1,0.2-0.3,0.2-0.5c0-0.1,0-0.2-0.1-0.3C56.9,25.6,56.8,25.5,56.7,25.4z"/>
	<path fill="#999999" d="M61.4,25.7v-0.5c0-0.2,0-0.3,0-0.4c0-0.1-0.1-0.2-0.1-0.3c-0.1-0.1-0.1-0.1-0.3-0.2c-0.1,0-0.3-0.1-0.5-0.1
		c-0.2,0-0.4,0-0.5,0.1c-0.1,0.1-0.3,0.1-0.3,0.2c-0.1,0.1-0.1,0.2-0.2,0.4l0.4,0.1c0-0.2,0.1-0.3,0.2-0.3c0.1-0.1,0.2-0.1,0.4-0.1
		c0.2,0,0.3,0,0.4,0.1c0.1,0.1,0.1,0.2,0.1,0.3c0,0,0,0,0,0.1c-0.1,0.1-0.4,0.1-0.7,0.1c-0.2,0-0.3,0-0.3,0.1
		c-0.1,0-0.2,0.1-0.3,0.1c-0.1,0.1-0.1,0.1-0.2,0.2c-0.1,0.1-0.1,0.2-0.1,0.3c0,0.2,0.1,0.4,0.2,0.5c0.1,0.1,0.3,0.2,0.6,0.2
		c0.2,0,0.3,0,0.4-0.1c0.1-0.1,0.3-0.1,0.4-0.3c0,0.1,0,0.2,0.1,0.3h0.4c0-0.1-0.1-0.2-0.1-0.3C61.4,26.3,61.4,26.1,61.4,25.7z
		 M61,25.6c0,0.2,0,0.3-0.1,0.4c-0.1,0.1-0.1,0.2-0.3,0.3c-0.1,0.1-0.2,0.1-0.4,0.1c-0.1,0-0.3,0-0.3-0.1c-0.1-0.1-0.1-0.2-0.1-0.3
		c0-0.1,0-0.1,0.1-0.2c0-0.1,0.1-0.1,0.2-0.1c0.1,0,0.2-0.1,0.3-0.1c0.3,0,0.5-0.1,0.6-0.2V25.6z"/>
	<polygon fill="#999999" points="51.4,26.1 51.4,24.3 51,24.3 51,26.7 51.4,26.7 52.5,24.9 52.5,26.7 52.9,26.7 52.9,24.3 
		52.4,24.3 	"/>
	<polygon fill="#999999" points="70,25.3 69,25.3 69,24.3 68.6,24.3 68.6,26.7 69,26.7 69,25.6 70,25.6 70,26.7 70.4,26.7 
		70.4,24.3 70,24.3 	"/>
	<rect x="0" y="21" fill="#999999" width="92.8" height="0.3"/>
	<path fill="#999999" d="M74.9,25.7v-0.5c0-0.2,0-0.3,0-0.4c0-0.1-0.1-0.2-0.1-0.3c-0.1-0.1-0.1-0.1-0.3-0.2c-0.1,0-0.3-0.1-0.5-0.1
		c-0.2,0-0.4,0-0.5,0.1c-0.1,0.1-0.3,0.1-0.3,0.2C73.1,24.7,73,24.8,73,25l0.4,0.1c0-0.2,0.1-0.3,0.2-0.3c0.1-0.1,0.2-0.1,0.4-0.1
		c0.2,0,0.3,0,0.4,0.1c0.1,0.1,0.1,0.2,0.1,0.3c0,0,0,0,0,0.1c-0.1,0.1-0.4,0.1-0.7,0.1c-0.2,0-0.3,0-0.3,0.1
		c-0.1,0-0.2,0.1-0.3,0.1c-0.1,0.1-0.1,0.1-0.2,0.2c-0.1,0.1-0.1,0.2-0.1,0.3c0,0.2,0.1,0.4,0.2,0.5c0.1,0.1,0.3,0.2,0.6,0.2
		c0.2,0,0.3,0,0.4-0.1c0.1-0.1,0.3-0.1,0.4-0.3c0,0.1,0,0.2,0.1,0.3H75c0-0.1-0.1-0.2-0.1-0.3C74.9,26.3,74.9,26.1,74.9,25.7z
		 M74.5,25.6c0,0.2,0,0.3-0.1,0.4c-0.1,0.1-0.1,0.2-0.3,0.3c-0.1,0.1-0.2,0.1-0.4,0.1c-0.1,0-0.3,0-0.3-0.1
		c-0.1-0.1-0.1-0.2-0.1-0.3c0-0.1,0-0.1,0.1-0.2c0-0.1,0.1-0.1,0.2-0.1c0.1,0,0.2-0.1,0.3-0.1c0.3,0,0.5-0.1,0.6-0.2V25.6z"/>
	<path fill="#999999" d="M48.3,24.3h-1.6c0,1-0.1,1.6-0.4,2h-0.2v1h0.3v-0.7h1.8v0.7h0.3v-1h-0.2V24.3z M47.9,26.3h-1.2
		c0.2-0.4,0.3-0.9,0.3-1.7h0.9V26.3z"/>
	<path fill="#999999" d="M65,24c0.2,0,0.3,0,0.4-0.1c0.1-0.1,0.2-0.2,0.2-0.4h-0.3c0,0.1-0.1,0.2-0.1,0.2c-0.1,0-0.1,0.1-0.3,0.1
		c-0.1,0-0.2,0-0.2-0.1c-0.1,0-0.1-0.1-0.1-0.2h-0.3c0,0.2,0.1,0.3,0.2,0.4C64.7,24,64.9,24,65,24z"/>
	<path fill="#999999" d="M92.8,6.1V1.8c0-1.2-0.6-1.7-1.7-1.7h-5.8c-1.2,0-1.7,0.6-1.7,1.8v4.3c0,0.6,0.2,1.1,0.6,1.5L90,13v3.8
		h-3.5v-3.9h-2.9v4.6c0,1.2,0.6,1.8,1.7,1.8h5.8h0v-1.8h1.7v-4.6c0-0.6-0.2-1.2-0.6-1.6l-5.7-5.4V2.4H90v3.6H92.8z"/>
	<path fill="#999999" d="M63.1,15.6h3.6l0.6,3.6h2.8L66.4,0h-3l-3.7,19.2v0h2.8L63.1,15.6z M64.9,4.5l1.4,8.7h-2.8L64.9,4.5z"/>
	<path fill="#999999" d="M19.2,26.3c-0.1,0.1-0.2,0.1-0.4,0.1c-0.2,0-0.3-0.1-0.5-0.2c-0.1-0.1-0.2-0.4-0.2-0.7
		c0-0.3,0.1-0.5,0.2-0.7c0.1-0.1,0.3-0.2,0.5-0.2c0.1,0,0.2,0,0.3,0.1c0.1,0.1,0.2,0.2,0.2,0.4l0.4-0.1c0-0.2-0.1-0.4-0.3-0.5
		c-0.2-0.1-0.4-0.2-0.6-0.2c-0.2,0-0.4,0-0.5,0.1c-0.2,0.1-0.3,0.2-0.4,0.4c-0.1,0.2-0.1,0.4-0.1,0.7c0,0.4,0.1,0.7,0.3,0.9
		c0.2,0.2,0.4,0.3,0.7,0.3c0.2,0,0.5-0.1,0.6-0.2c0.2-0.2,0.3-0.4,0.3-0.6l-0.4-0.1C19.3,26,19.3,26.2,19.2,26.3z"/>
	<polygon fill="#999999" points="51.3,15.5 55.2,15.5 55.2,19.2 58.1,19.2 58.1,0 55.2,0 55.2,13.1 51.3,13.1 51.3,0 48.5,0 
		48.5,19.2 51.3,19.2 	"/>
	<path fill="#999999" d="M73.5,19.2h6.1c1.2,0,1.8-0.6,1.8-1.8V0h-2.9v16.7h-3.9V0h-2.9v17.4C71.7,18.6,72.3,19.2,73.5,19.2z"/>
	<polygon fill="#999999" points="35.4,26.1 35.4,24.3 35,24.3 35,26.7 35.4,26.7 36.5,24.9 36.5,26.7 36.9,26.7 36.9,24.3 
		36.4,24.3 	"/>
	<path fill="#999999" d="M39.6,24.5c-0.1,0.1-0.2,0.3-0.2,0.5c0,0.2,0.1,0.3,0.2,0.5c0.1,0.1,0.3,0.2,0.5,0.2
		c-0.1,0-0.3,0.1-0.4,0.3l-0.4,0.6h0.5l0.3-0.5c0.1-0.2,0.2-0.3,0.3-0.3s0.2-0.1,0.3-0.1h0.2v0.9h0.4v-2.3h-1.1
		C40,24.3,39.8,24.4,39.6,24.5z M40.9,24.7v0.8h-0.4c-0.2,0-0.4,0-0.5-0.1c-0.1-0.1-0.1-0.2-0.1-0.3c0-0.1,0-0.2,0.1-0.3
		c0.1-0.1,0.2-0.1,0.4-0.1H40.9z"/>
	<path fill="#999999" d="M32.3,24.3h-1.6c0,1-0.1,1.6-0.4,2h-0.2v1h0.3v-0.7h1.8v0.7h0.3v-1h-0.2V24.3z M31.9,26.3h-1.2
		c0.2-0.4,0.3-0.9,0.3-1.7h0.9V26.3z"/>
	<path fill="#999999" d="M27.3,25.7c-0.1,0.2-0.1,0.3-0.2,0.5c0-0.2-0.1-0.4-0.2-0.5l-0.5-1.3H26l0.9,2.3c0,0,0,0.1,0,0.1
		c-0.1,0.2-0.1,0.3-0.1,0.3c0,0.1-0.1,0.1-0.1,0.1c-0.1,0-0.1,0-0.2,0c-0.1,0-0.1,0-0.2,0l0,0.4c0.1,0,0.2,0,0.2,0
		c0.1,0,0.2,0,0.3-0.1c0.1-0.1,0.2-0.2,0.2-0.3c0.1-0.1,0.1-0.3,0.2-0.5l0.9-2.4h-0.4L27.3,25.7z"/>
	<polygon fill="#999999" points="21.9,24.7 22.7,24.7 22.7,26.7 23.1,26.7 23.1,24.7 23.8,24.7 23.8,24.3 21.9,24.3 	"/>
</g>
</svg>
